<?xml version="1.0" standalone="no"?>
<!DOCTYPE svg PUBLIC "-//W3C//DTD SVG 20010904//EN"
 "http://www.w3.org/TR/2001/REC-SVG-20010904/DTD/svg10.dtd">
<svg version="1.0" xmlns="http://www.w3.org/2000/svg"
 width="1024.000000pt" height="1024.000000pt" viewBox="0 0 1024.000000 1024.000000"
 preserveAspectRatio="xMidYMid meet">

<g transform="translate(0.000000,1024.000000) scale(0.100000,-0.100000)"
fill="#00d8ff" stroke="none">
<path d="M4810 9720 c-1090 -79 -2043 -491 -2854 -1236 -103 -95 -313 -322
-418 -454 -478 -600 -778 -1245 -922 -1985 -20 -101 -52 -334 -67 -490 -19
-183 -16 -678 5 -860 67 -589 216 -1106 462 -1598 96 -191 171 -318 309 -527
294 -442 624 -791 1052 -1113 1113 -838 2557 -1126 3898 -777 1067 278 2029
959 2654 1880 417 614 668 1291 767 2065 21 165 30 677 15 875 -72 956 -432
1858 -1036 2590 -110 133 -468 488 -604 599 -714 579 -1543 920 -2471 1016
-185 19 -615 27 -790 15z m761 -284 c736 -81 1389 -318 2000 -726 259 -173
451 -331 659 -541 524 -528 900 -1195 1095 -1944 133 -509 168 -1111 95 -1654
-153 -1139 -763 -2184 -1675 -2871 -758 -570 -1591 -862 -2535 -887 -869 -23
-1740 235 -2494 740 -733 490 -1289 1185 -1626 2031 -121 304 -214 673 -262
1034 -20 146 -22 212 -22 527 0 283 3 392 17 510 94 790 371 1478 840 2095
664 871 1632 1460 2692 1639 345 58 513 71 835 66 135 -3 306 -11 381 -19z"/>
<path d="M3625 8552 c-63 -35 -101 -61 -370 -256 -316 -228 -585 -430 -585
-438 0 -5 276 -8 613 -8 602 0 614 0 635 -20 45 -42 38 -102 -15 -137 -25 -17
-68 -18 -550 -23 l-524 -5 -147 -150 c-694 -705 -823 -841 -847 -889 -18 -38
-42 -151 -96 -451 -85 -477 -169 -969 -166 -971 1 -1 90 102 198 229 180 212
464 539 757 872 230 261 237 267 875 768 131 103 251 194 267 202 43 22 68 18
102 -15 25 -26 29 -36 24 -63 -7 -39 17 -18 -471 -402 -214 -169 -405 -321
-424 -339 -84 -79 -861 -976 -1181 -1365 -245 -297 -309 -384 -286 -389 41 -9
241 106 465 267 85 62 166 114 179 118 19 4 30 0 44 -17 17 -21 18 -53 18
-554 0 -562 5 -648 45 -774 46 -147 72 -176 782 -892 362 -365 700 -701 751
-747 56 -49 127 -101 175 -126 45 -24 147 -79 226 -121 79 -43 145 -76 146
-74 2 2 -411 421 -918 932 -507 511 -931 943 -943 960 -36 53 -62 139 -73 239
-7 56 -11 312 -11 615 0 564 3 598 57 672 43 58 1165 1175 1214 1208 25 17 73
40 107 51 57 20 84 21 407 21 l346 0 24 -25 c36 -35 34 -88 -4 -126 l-29 -29
-334 0 -333 0 -55 -25 c-47 -22 -139 -110 -631 -603 -491 -492 -578 -583 -588
-617 -14 -51 -15 -1031 -1 -1128 6 -37 22 -92 38 -122 30 -61 30 -60 1097
-1135 369 -371 693 -700 720 -730 47 -51 467 -466 545 -537 l35 -32 0 792 c0
740 -1 795 -18 832 -12 28 -191 213 -595 617 -623 622 -629 629 -652 757 -6
31 -10 283 -10 603 l0 549 25 24 c30 31 83 33 116 6 l24 -19 5 -564 5 -563 32
-65 c29 -58 91 -123 595 -621 413 -408 571 -570 591 -607 55 -101 57 -124 57
-884 0 -384 3 -698 6 -698 14 0 401 284 421 310 20 24 29 63 153 685 141 705
153 777 148 858 -7 118 -22 137 -400 512 -989 982 -944 935 -969 1000 -23 59
-24 66 -27 505 -4 466 0 509 39 531 36 19 79 14 105 -13 l25 -25 2 -444 c2
-434 2 -445 24 -484 12 -23 236 -253 525 -540 800 -794 759 -752 795 -826 38
-77 63 -174 63 -247 0 -42 -237 -1277 -256 -1331 -3 -10 -1 -11 8 -4 7 5 76
57 153 115 154 117 208 165 230 207 16 32 210 560 318 866 99 282 99 275 -23
590 -53 135 -95 261 -98 287 -4 47 -8 51 -105 135 -55 48 -326 312 -603 587
-474 473 -504 504 -526 561 -22 58 -23 74 -26 386 -3 267 -1 333 11 360 8 19
48 75 88 124 91 111 240 308 694 913 327 436 353 468 392 482 49 16 77 13 353
-45 281 -60 276 -58 438 -177 l92 -68 1 123 c1 67 2 133 2 147 2 102 -3 130
-30 160 -16 16 -64 49 -108 73 -44 24 -305 169 -580 322 -608 338 -669 370
-769 395 -77 19 -112 20 -1040 20 l-961 0 -50 -28z m1202 -407 c270 -90 519
-177 554 -193 80 -36 451 -282 473 -313 18 -27 21 -62 6 -90 -24 -44 -613
-840 -720 -973 -36 -44 -84 -91 -105 -103 -97 -55 -201 -15 -343 130 -109 111
-133 139 -278 335 -279 373 -321 461 -283 595 10 38 95 233 195 450 31 65 54
120 52 122 -2 1 -27 13 -56 25 -63 27 -92 61 -92 106 0 44 30 74 74 74 19 0
254 -74 523 -165z m-1761 -3609 c20 -23 22 -38 27 -253 6 -240 16 -310 59
-383 12 -19 288 -303 614 -630 590 -591 594 -596 594 -636 0 -52 -33 -85 -85
-87 -35 -1 -57 20 -640 603 -656 656 -645 644 -686 797 -18 65 -22 117 -26
310 -3 127 -3 244 1 258 8 31 59 57 96 49 14 -2 35 -15 46 -28z"/>
<path d="M4453 7822 c-158 -325 -164 -352 -114 -457 57 -120 347 -509 477
-640 44 -45 90 -84 102 -87 16 -4 32 2 54 20 26 22 603 784 663 875 10 16 14
31 9 36 -5 4 -80 56 -168 116 l-158 107 -327 108 c-179 60 -350 115 -379 124
l-54 15 -105 -217z"/>
<path d="M6088 7123 c-251 -336 -733 -973 -792 -1047 l-31 -38 0 -282 c0 -271
1 -283 22 -326 16 -32 147 -167 450 -465 624 -614 670 -657 819 -756 204 -136
774 -494 829 -521 93 -46 137 -53 340 -53 184 0 192 1 246 26 159 75 287 234
333 416 15 55 38 234 32 241 -2 1 -20 -5 -42 -14 -93 -39 -239 -85 -306 -95
-50 -8 -209 -10 -511 -7 l-438 5 -24 23 c-14 13 -27 32 -31 42 -8 28 14 83 39
96 15 8 168 13 507 15 l485 3 86 31 c178 64 311 126 345 159 39 40 63 109 71
211 l6 71 -39 34 c-163 140 -433 380 -453 401 -30 33 -23 86 17 118 27 21 30
21 325 14 l297 -8 -72 70 c-108 102 -434 402 -676 622 -117 106 -220 207 -229
224 -19 36 -23 127 -9 253 8 71 6 86 -12 126 -34 78 -86 122 -361 310 -146
100 -307 212 -356 249 -50 37 -102 72 -115 78 -24 10 -470 111 -490 111 -5 0
-123 -152 -262 -337z m931 -412 c70 -5 86 -10 102 -30 28 -35 24 -77 -10 -112
l-29 -29 -168 0 -168 0 44 -37 c24 -21 107 -90 184 -154 132 -108 141 -118
144 -153 5 -54 -27 -86 -83 -86 -40 0 -53 9 -201 133 -313 261 -369 309 -391
333 -32 35 -30 79 6 115 l29 29 229 -1 c125 0 266 -4 312 -8z"/>
<path d="M8345 5243 c6 -5 68 -61 139 -123 149 -132 126 -134 207 22 l50 98
-94 0 c-52 0 -143 3 -203 6 -70 4 -105 3 -99 -3z"/>
</g>
</svg>
